<svg xmlns="http://www.w3.org/2000/svg" version="1.1" xmlns:xlink="http://www.w3.org/1999/xlink" xmlns:svgjs="http://svgjs.dev/svgjs" width="1000" height="1000" viewBox="0 0 1000 1000"><rect width="1000" height="1000" fill="#ed1703"></rect><g transform="matrix(0.7,0,0,0.7,149.57575757575756,331.4044053276874)"><svg viewBox="0 0 396 191" data-background-color="#ed1703" preserveAspectRatio="xMidYMid meet" height="482" width="1000" xmlns="http://www.w3.org/2000/svg" xmlns:xlink="http://www.w3.org/1999/xlink"><g id="tight-bounds" transform="matrix(1,0,0,1,0.2400000000000091,-0.059103193800496)"><svg viewBox="0 0 395.52 191.11820631469834" height="191.11820631469834" width="395.52"><g><svg viewBox="0 0 397.4975999999999 192.07379734627182" height="191.11820631469834" width="395.52"><g><rect width="397.4975999999999" height="3.3394145327604843" x="0" y="103.62542524539974" fill="#ffffff" opacity="1" stroke-width="0" stroke="transparent" fill-opacity="1" class="rect-o-0" data-fill-palette-color="primary" rx="1%" id="o-0" data-palette-color="#ffffff"></rect></g><g><rect width="397.4975999999999" height="3.3394145327604843" x="0" y="111.33580120847499" fill="#ffffff" opacity="1" stroke-width="0" stroke="transparent" fill-opacity="1" class="rect-o-1" data-fill-palette-color="primary" rx="1%" id="o-1" data-palette-color="#ffffff"></rect></g><g transform="matrix(1,0,0,1,0.9887999999999693,123.41713860186502)"><svg viewBox="0 0 395.52 68.65665874440678" height="68.65665874440678" width="395.52"><g><svg viewBox="0 0 395.52 68.65665874440678" height="68.65665874440678" width="395.52"><g><svg viewBox="0 0 395.52 37.030121065375305" height="37.030121065375305" width="395.52"><g transform="matrix(1,0,0,1,0,0)"><svg width="395.52" viewBox="1.6500000953674316 -34.20000076293945 371.6700134277344 34.79999923706055" height="37.030121065375305" data-palette-color="#ffffff"><path d="M28.7 0L1.65 0 1.65-1.2 6-1.65 6-31.75 1.65-32.2 1.65-33.4 27.15-33.4 27.15-26.3 25.55-26.3 23.6-31.6 12.65-31.75 12.65-18.3 22.35-18.3 23.9-22 25.3-22 25.3-12.7 23.85-12.7 22.35-16.5 12.65-16.5 12.65-1.6 25.1-1.75 27.7-7.45 29.3-7.45 28.7 0ZM57.85-32.2L57.85-33.4 67.95-33.4 67.95-32.2 64.45-31 64.45 0 61.05 0 38.8-27.4 38.8-2.45 43-1.2 43 0 33 0 33-1.2 36.65-2.45 36.65-31.75 32.3-32.2 32.3-33.4 41.7-33.4 61.7-8.5 61.7-31.05 57.85-32.2ZM98.7 0L71.65 0 71.65-1.2 76-1.65 76-31.75 71.65-32.2 71.65-33.4 97.15-33.4 97.15-26.3 95.55-26.3 93.59-31.6 82.65-31.75 82.65-18.3 92.34-18.3 93.9-22 95.3-22 95.3-12.7 93.84-12.7 92.34-16.5 82.65-16.5 82.65-1.6 95.09-1.75 97.7-7.45 99.3-7.45 98.7 0ZM125.04-32.2L125.04-33.4 135.19-33.4 135.19-32.25 131.09-30.9 117.84-18.9 134.54-1.7 138.54-1.4 138.54 0 122.54 0 122.54-1.3 126.09-1.65 113.39-15.2 113.39-1.65 117.74-1.2 117.74 0 102.39 0 102.39-1.2 106.74-1.65 106.74-31.75 102.39-32.2 102.39-33.4 117.74-33.4 117.74-32.2 113.39-31.75 113.39-17.45 128.59-31.1 125.04-32.2ZM171.44-16.8Q171.44-9.3 166.76-4.38 162.09 0.55 154.16 0.55 146.24 0.55 141.56-4.38 136.89-9.3 136.89-16.8 136.89-24.3 141.56-29.23 146.24-34.15 154.16-34.15 162.09-34.15 166.76-29.23 171.44-24.3 171.44-16.8ZM154.24-1L154.24-1Q163.84-1 163.84-16.8L163.84-16.8Q163.84-24.4 161.66-28.5 159.49-32.6 154.19-32.6 148.89-32.6 146.66-28.5 144.44-24.4 144.44-16.8L144.44-16.8Q144.44-1 154.24-1ZM175.84-33.85L181.19-33.85 179.69-22.6 177.29-22.6 175.84-33.85ZM187.19-1.7L187.19-1.7Q185.09-3.05 185.09-5.15L185.09-5.15Q185.09-8.05 189.69-8.75L189.69-8.75Q190.49-4.1 193.09-2.3L193.09-2.3Q195.39-0.7 197.96-0.7 200.54-0.7 202.41-2.27 204.29-3.85 204.29-7.45L204.29-7.45Q204.29-10.15 202.36-11.73 200.44-13.3 197.49-14.5 194.54-15.7 193.49-16.18 192.44-16.65 190.81-17.6 189.19-18.55 188.39-19.4L188.39-19.4Q186.39-21.7 186.39-24.7L186.39-24.7Q186.39-29.4 189.89-31.8 193.39-34.2 199.64-34.2L199.64-34.2Q203.19-34.2 207.89-33.4L207.89-33.4 207.89-26 206.24-26 204.24-31.9Q201.74-32.7 199.16-32.7 196.59-32.7 194.69-31.08 192.79-29.45 192.79-26.25L192.79-26.25Q192.79-22.6 196.09-20.8L196.09-20.8Q197.74-19.95 199.99-19.1 202.24-18.25 203.24-17.82 204.24-17.4 205.89-16.48 207.54-15.55 208.34-14.65 209.14-13.75 209.79-12.28 210.44-10.8 210.44-9.05L210.44-9.05Q210.44-4.8 206.84-2.1 203.24 0.6 197.01 0.6 190.79 0.6 187.19-1.7ZM251.28-32.2L251.28-33.4 261.38-33.4 261.38-32.2 257.88-31 257.88 0 254.48 0 232.23-27.4 232.23-2.45 236.43-1.2 236.43 0 226.43 0 226.43-1.2 230.08-2.45 230.08-31.75 225.73-32.2 225.73-33.4 235.13-33.4 255.13-8.5 255.13-31.05 251.28-32.2ZM292.13 0L265.08 0 265.08-1.2 269.43-1.65 269.43-31.75 265.08-32.2 265.08-33.4 290.58-33.4 290.58-26.3 288.98-26.3 287.03-31.6 276.08-31.75 276.08-18.3 285.78-18.3 287.33-22 288.73-22 288.73-12.7 287.28-12.7 285.78-16.5 276.08-16.5 276.08-1.6 288.53-1.75 291.13-7.45 292.73-7.45 292.13 0ZM292.58-32.2L292.58-33.4 307.08-33.4 307.08-32.2 303.33-31.75 313.23-6.85 319.48-22.55 315.73-31.75 312.03-32.2 312.03-33.4 326.53-33.4 326.53-32.2 322.58-31.75 332.48-6.85 341.28-30.9 336.88-32.2 336.88-33.4 347.33-33.4 347.33-32.2 343.53-30.85 331.83 0.3 328.83 0.3 320.58-19.8 312.58 0.3 309.58 0.3 296.43-31.75 292.58-32.2ZM350.07-1.7L350.07-1.7Q347.97-3.05 347.97-5.15L347.97-5.15Q347.97-8.05 352.57-8.75L352.57-8.75Q353.37-4.1 355.97-2.3L355.97-2.3Q358.27-0.7 360.85-0.7 363.42-0.7 365.3-2.27 367.17-3.85 367.17-7.45L367.17-7.45Q367.17-10.15 365.25-11.73 363.32-13.3 360.37-14.5 357.42-15.7 356.37-16.18 355.32-16.65 353.7-17.6 352.07-18.55 351.27-19.4L351.27-19.4Q349.27-21.7 349.27-24.7L349.27-24.7Q349.27-29.4 352.77-31.8 356.27-34.2 362.52-34.2L362.52-34.2Q366.07-34.2 370.77-33.4L370.77-33.4 370.77-26 369.12-26 367.12-31.9Q364.62-32.7 362.05-32.7 359.47-32.7 357.57-31.08 355.67-29.45 355.67-26.25L355.67-26.25Q355.67-22.6 358.97-20.8L358.97-20.8Q360.62-19.95 362.87-19.1 365.12-18.25 366.12-17.82 367.12-17.4 368.77-16.48 370.42-15.55 371.22-14.65 372.02-13.75 372.67-12.28 373.32-10.8 373.32-9.05L373.32-9.05Q373.32-4.8 369.72-2.1 366.12 0.6 359.9 0.6 353.67 0.6 350.07-1.7Z" opacity="1" transform="matrix(1,0,0,1,0,0)" fill="#ffffff" class="undefined-text-0" data-fill-palette-color="primary" id="text-0"></path></svg></g></svg></g><g transform="matrix(1,0,0,1,118.232446403366,45.77204392600484)"><svg viewBox="0 0 159.055107193268 22.88461481840194" height="22.88461481840194" width="159.055107193268"><g transform="matrix(1,0,0,1,0,0)"><svg width="159.055107193268" viewBox="1.4900000095367432 -37.5 331.19000244140625 47.65999984741211" height="22.88461481840194" data-palette-color="#ffffff"><path d="M13.48-10.72L20.51-35.55 23.97-35.55 21.97-25.95 14.4 0 10.96 0 13.48-10.72ZM6.23-35.55L11.82-11.18 13.48 0 10.08 0 1.49-35.55 6.23-35.55ZM33.06-11.21L38.53-35.55 43.29-35.55 34.69 0 31.3 0 33.06-11.21ZM24.49-35.55L31.32-10.72 33.81 0 30.37 0 23.07-25.95 21.09-35.55 24.49-35.55ZM58.76 0.49L58.76 0.49Q55.08 0.49 52.35-1.16 49.63-2.81 48.13-5.69 46.63-8.57 46.63-12.28L46.63-12.28 46.63-13.33Q46.63-17.63 48.28-20.67 49.92-23.71 52.57-25.31 55.22-26.9 58.18-26.9L58.18-26.9Q61.98-26.9 64.39-25.21 66.79-23.51 67.93-20.59 69.06-17.68 69.06-13.99L69.06-13.99 69.06-11.96 49.34-11.96 49.34-15.63 64.5-15.63 64.5-15.97Q64.4-17.72 63.79-19.4 63.18-21.07 61.84-22.16 60.5-23.24 58.18-23.24L58.18-23.24Q56.13-23.24 54.55-22.08 52.98-20.92 52.08-18.71 51.19-16.5 51.19-13.33L51.19-13.33 51.19-12.28Q51.19-9.77 52.12-7.7 53.05-5.64 54.81-4.41 56.56-3.17 59.01-3.17L59.01-3.17Q61.4-3.17 63.06-4.15 64.72-5.13 65.96-6.76L65.96-6.76 68.72-4.61Q67.45-2.66 65.07-1.09 62.69 0.49 58.76 0.49ZM74.31-37.5L78.88-37.5 78.88-5.13 78.49 0 74.31 0 74.31-37.5ZM96.7-13.43L96.7-12.92Q96.7-9.06 95.5-6.03 94.31-3 92.01-1.26 89.72 0.49 86.45 0.49L86.45 0.49Q83.08 0.49 80.83-1.04 78.58-2.56 77.34-5.36 76.09-8.15 75.7-11.99L75.7-11.99 75.7-14.36Q76.09-18.24 77.34-21.04 78.58-23.85 80.82-25.38 83.05-26.9 86.4-26.9L86.4-26.9Q89.72-26.9 92.01-25.22 94.31-23.54 95.5-20.5 96.7-17.46 96.7-13.43L96.7-13.43ZM92.13-12.92L92.13-13.43Q92.13-16.06 91.47-18.27 90.82-20.48 89.31-21.8 87.81-23.12 85.25-23.12L85.25-23.12Q83.56-23.12 82.31-22.53 81.05-21.95 80.17-20.96 79.29-19.97 78.74-18.71 78.19-17.46 77.92-16.11L77.92-16.11 77.92-10.18Q78.32-8.47 79.19-6.9 80.07-5.32 81.57-4.32 83.08-3.32 85.3-3.32L85.3-3.32Q87.74-3.32 89.24-4.63 90.74-5.93 91.44-8.11 92.13-10.28 92.13-12.92L92.13-12.92ZM125.11 0L117.69 0 117.74-3.81 125.11-3.81Q128.9-3.81 131.44-5.41 133.97-7.01 135.26-9.9 136.54-12.79 136.54-16.7L136.54-16.7 136.54-18.9Q136.54-22.97 135.26-25.83 133.97-28.69 131.51-30.2 129.04-31.71 125.53-31.71L125.53-31.71 117.54-31.71 117.54-35.55 125.53-35.55Q130.21-35.55 133.74-33.51 137.27-31.47 139.25-27.72 141.23-23.97 141.23-18.85L141.23-18.85 141.23-16.7Q141.23-11.55 139.25-7.81 137.27-4.08 133.66-2.04 130.04 0 125.11 0L125.11 0ZM120.23-35.55L120.23 0 115.49 0 115.49-35.55 120.23-35.55ZM158.58 0.49L158.58 0.49Q154.89 0.49 152.17-1.16 149.45-2.81 147.95-5.69 146.45-8.57 146.45-12.28L146.45-12.28 146.45-13.33Q146.45-17.63 148.1-20.67 149.74-23.71 152.39-25.31 155.04-26.9 158-26.9L158-26.9Q161.8-26.9 164.21-25.21 166.61-23.51 167.75-20.59 168.88-17.68 168.88-13.99L168.88-13.99 168.88-11.96 149.16-11.96 149.16-15.63 164.32-15.63 164.32-15.97Q164.22-17.72 163.61-19.4 163-21.07 161.66-22.16 160.31-23.24 158-23.24L158-23.24Q155.94-23.24 154.37-22.08 152.8-20.92 151.9-18.71 151.01-16.5 151.01-13.33L151.01-13.33 151.01-12.28Q151.01-9.77 151.94-7.7 152.87-5.64 154.63-4.41 156.38-3.17 158.83-3.17L158.83-3.17Q161.22-3.17 162.88-4.15 164.54-5.13 165.78-6.76L165.78-6.76 168.54-4.61Q167.27-2.66 164.89-1.09 162.51 0.49 158.58 0.49ZM181.87-4.05L189.05-26.42 193.71-26.42 184.24 0 181.16 0 181.87-4.05ZM175.86-26.42L183.29-3.93 183.82 0 180.77 0 171.2-26.42 175.86-26.42ZM209.04 0.49L209.04 0.49Q205.35 0.49 202.63-1.16 199.91-2.81 198.41-5.69 196.91-8.57 196.91-12.28L196.91-12.28 196.91-13.33Q196.91-17.63 198.55-20.67 200.2-23.71 202.85-25.31 205.5-26.9 208.45-26.9L208.45-26.9Q212.26-26.9 214.67-25.21 217.07-23.51 218.21-20.59 219.34-17.68 219.34-13.99L219.34-13.99 219.34-11.96 199.62-11.96 199.62-15.63 214.78-15.63 214.78-15.97Q214.68-17.72 214.07-19.4 213.46-21.07 212.12-22.16 210.77-23.24 208.45-23.24L208.45-23.24Q206.4-23.24 204.83-22.08 203.25-20.92 202.36-18.71 201.47-16.5 201.47-13.33L201.47-13.33 201.47-12.28Q201.47-9.77 202.4-7.7 203.33-5.64 205.09-4.41 206.84-3.17 209.28-3.17L209.28-3.17Q211.68-3.17 213.34-4.15 215-5.13 216.24-6.76L216.24-6.76 219-4.61Q217.73-2.66 215.35-1.09 212.97 0.49 209.04 0.49ZM229.55-37.5L229.55 0 224.98 0 224.98-37.5 229.55-37.5ZM235.57-12.92L235.57-13.48Q235.57-17.31 237.04-20.34 238.5-23.36 241.19-25.13 243.87-26.9 247.56-26.9L247.56-26.9Q251.3-26.9 254.01-25.13 256.72-23.36 258.17-20.34 259.62-17.31 259.62-13.48L259.62-13.48 259.62-12.92Q259.62-9.11 258.17-6.07 256.72-3.03 254.02-1.27 251.32 0.49 247.61 0.49L247.61 0.49Q243.9 0.49 241.2-1.27 238.5-3.03 237.04-6.07 235.57-9.11 235.57-12.92L235.57-12.92ZM240.14-13.48L240.14-12.92Q240.14-10.3 240.97-8.08 241.8-5.86 243.45-4.52 245.09-3.17 247.61-3.17L247.61-3.17Q250.1-3.17 251.75-4.52 253.4-5.86 254.23-8.08 255.06-10.3 255.06-12.92L255.06-12.92 255.06-13.48Q255.06-16.09 254.23-18.31 253.4-20.53 251.74-21.89 250.08-23.24 247.56-23.24L247.56-23.24Q245.09-23.24 243.43-21.89 241.77-20.53 240.96-18.31 240.14-16.09 240.14-13.48L240.14-13.48ZM269.85-21.34L269.85 10.16 265.28 10.16 265.28-26.42 269.43-26.42 269.85-21.34ZM287.62-13.43L287.62-12.92Q287.62-9.06 286.43-6.03 285.23-3 282.95-1.26 280.66 0.49 277.39 0.49L277.39 0.49Q274 0.49 271.7-0.98 269.41-2.44 268.11-5.14 266.82-7.84 266.43-11.52L266.43-11.52 266.43-14.36Q266.82-18.24 268.13-21.04 269.43-23.85 271.72-25.38 274-26.9 277.32-26.9L277.32-26.9Q280.64-26.9 282.93-25.22 285.23-23.54 286.43-20.5 287.62-17.46 287.62-13.43L287.62-13.43ZM283.06-12.92L283.06-13.43Q283.06-16.06 282.31-18.27 281.57-20.48 279.99-21.8 278.42-23.12 275.95-23.12L275.95-23.12Q274.27-23.12 273.02-22.53 271.78-21.95 270.9-20.96 270.02-19.97 269.47-18.71 268.92-17.46 268.65-16.11L268.65-16.11 268.65-9.74Q269.14-8.03 270.01-6.53 270.87-5.03 272.33-4.1 273.78-3.17 276-3.17L276-3.17Q278.44-3.17 280-4.52 281.57-5.86 282.31-8.07 283.06-10.28 283.06-12.92L283.06-12.92ZM304.34 0.49L304.34 0.49Q300.66 0.49 297.93-1.16 295.21-2.81 293.71-5.69 292.21-8.57 292.21-12.28L292.21-12.28 292.21-13.33Q292.21-17.63 293.86-20.67 295.5-23.71 298.15-25.31 300.8-26.9 303.76-26.9L303.76-26.9Q307.57-26.9 309.97-25.21 312.37-23.51 313.51-20.59 314.65-17.68 314.65-13.99L314.65-13.99 314.65-11.96 294.92-11.96 294.92-15.63 310.08-15.63 310.08-15.97Q309.98-17.72 309.37-19.4 308.76-21.07 307.42-22.16 306.08-23.24 303.76-23.24L303.76-23.24Q301.71-23.24 300.13-22.08 298.56-20.92 297.67-18.71 296.77-16.5 296.77-13.33L296.77-13.33 296.77-12.28Q296.77-9.77 297.7-7.7 298.63-5.64 300.39-4.41 302.15-3.17 304.59-3.17L304.59-3.17Q306.98-3.17 308.64-4.15 310.3-5.13 311.54-6.76L311.54-6.76 314.3-4.61Q313.03-2.66 310.65-1.09 308.27 0.49 304.34 0.49ZM324.46-22.27L324.46 0 319.89 0 319.89-26.42 324.34-26.42 324.46-22.27ZM332.68-26.56L332.68-22.39Q332.1-22.51 331.6-22.55 331.1-22.58 330.46-22.58L330.46-22.58Q328.39-22.58 326.96-21.73 325.53-20.87 324.75-19.37 323.97-17.87 323.77-15.94L323.77-15.94 322.48-15.21Q322.48-18.41 323.33-21.06 324.19-23.71 326.01-25.31 327.83-26.9 330.68-26.9L330.68-26.9Q331.15-26.9 331.79-26.79 332.44-26.68 332.68-26.56L332.68-26.56Z" opacity="1" transform="matrix(1,0,0,1,0,0)" fill="#ffffff" class="undefined-text-1" data-fill-palette-color="secondary" id="text-1"></path></svg></g></svg></g></svg></g></svg></g><g transform="matrix(1,0,0,1,151.98116282244598,0)"><svg viewBox="0 0 93.53527435510794 94.8835023847702" height="94.8835023847702" width="93.53527435510794"><g><svg xmlns="http://www.w3.org/2000/svg" xmlns:xlink="http://www.w3.org/1999/xlink" version="1.1" x="0" y="0" viewBox="8.706995964050293 6.3979997634887695 84.28313446044922 85.49800109863281" enable-background="new 0 0 100 100" xml:space="preserve" height="94.8835023847702" width="93.53527435510794" class="icon-icon-0" data-fill-palette-color="accent" id="icon-0"><path fill="#ffffff" d="M81.485 91.896l-12.784-4.252L22.275 41.201c-0.641-0.642-0.641-1.682 0.001-2.323 0.641-0.642 1.681-0.641 2.322 0l45.877 45.892 5.814 1.933-1.939-5.805L28.904 35.423c-0.642-0.642-0.642-1.681 0.001-2.323 0.642-0.641 1.682-0.642 2.323 0l45.993 46.023L81.485 91.896z" data-fill-palette-color="accent"></path><path fill="#ffffff" d="M13.451 31.729c-0.42 0-0.84-0.16-1.161-0.48l-3.101-3.096c-0.309-0.308-0.482-0.725-0.482-1.161-0.001-0.436 0.173-0.854 0.48-1.162l6.192-6.199c0.309-0.308 0.726-0.481 1.161-0.481 0.001 0 0.001 0 0.001 0 0.436 0 0.854 0.173 1.162 0.48l3.098 3.097c0.643 0.642 0.643 1.681 0.001 2.323-0.641 0.642-1.681 0.642-2.323 0.001l-1.936-1.936-3.871 3.874 1.938 1.935c0.642 0.641 0.643 1.682 0.002 2.323C14.292 31.569 13.872 31.729 13.451 31.729z" data-fill-palette-color="accent"></path><path fill="#ffffff" d="M19.939 38.568c-0.438 0-0.877-0.175-1.2-0.521-0.62-0.662-0.586-1.702 0.078-2.322l6.61-6.185c0.663-0.62 1.703-0.586 2.321 0.078 0.621 0.662 0.586 1.702-0.076 2.321l-6.611 6.185C20.745 38.422 20.341 38.568 19.939 38.568z" data-fill-palette-color="accent"></path><path fill="#ffffff" d="M16.541 35.169c-0.439 0-0.877-0.176-1.2-0.521-0.619-0.661-0.585-1.702 0.077-2.321l6.611-6.185c0.663-0.621 1.703-0.584 2.322 0.077 0.619 0.663 0.585 1.703-0.078 2.322l-6.61 6.185C17.345 35.023 16.943 35.169 16.541 35.169z" data-fill-palette-color="accent"></path><path fill="#ffffff" d="M43.43 66.24L22.12 87.55 11.78 77.2l21.37-21.37c0.67-0.67 1.75-0.67 2.41 0 0.67 0.66 0.67 1.74 0 2.41l-2.71 2.72 1.56 1.56c0.66 0.66 0.66 1.74 0 2.41-0.34 0.33-0.77 0.5-1.21 0.5-0.44 0-0.87-0.17-1.21-0.5l-1.56-1.56-2.81 2.81 1.56 1.561c0.67 0.67 0.67 1.75 0 2.42-0.33 0.33-0.77 0.49-1.21 0.49-0.43 0-0.87-0.16-1.2-0.5l-1.56-1.561-3.17 3.17 1.56 1.561c0.66 0.67 0.66 1.75 0 2.42-0.34 0.33-0.77 0.5-1.21 0.5s-0.87-0.17-1.2-0.5l-1.56-1.561L16.6 77.2l5.52 5.52 18.89-18.89c0.67-0.67 1.75-0.67 2.42 0C44.09 64.5 44.09 65.58 43.43 66.24z" data-fill-palette-color="accent"></path><path fill="#ffffff" d="M54.933 54.029c-0.437 0-0.873-0.167-1.206-0.5-0.667-0.666-0.667-1.746 0-2.412l19.15-19.151-5.518-5.52L48.596 45.21c-0.667 0.666-1.746 0.666-2.413 0-0.666-0.667-0.666-1.747 0-2.413l21.177-21.177 10.342 10.347L56.139 53.529C55.806 53.862 55.369 54.029 54.933 54.029z" data-fill-palette-color="accent"></path><path fill="#ffffff" d="M54.366 32.521L31.934 10.089l1.206-1.207c1.602-1.602 3.727-2.484 5.983-2.484 2.251 0 4.371 0.879 5.967 2.475l9.997 9.998c0.474 0.437 2.834 0.534 4.102 0.586l0.129 0.005c1.465-0.388 3.033-0.367 4.49 0.062l2.757 0.813L54.366 32.521zM36.965 10.295l17.403 17.402 4.83-4.824-0.149-0.006c-2.457-0.101-4.998-0.206-6.374-1.582l-9.998-9.998c-0.952-0.952-2.214-1.476-3.554-1.476C38.365 9.811 37.632 9.978 36.965 10.295z" data-fill-palette-color="accent"></path><path fill="#ffffff" d="M89.316 67.463l-22.52-22.51L79.01 32.749l0.831 2.713c0.46 1.505 0.492 3.096 0.094 4.622l0.004 0.088c0.053 1.282 0.151 3.667 0.593 4.153l9.991 9.981c3.29 3.303 3.289 8.663 0 11.951L89.316 67.463zM71.623 44.953l17.482 17.475c0.874-1.866 0.541-4.166-0.998-5.711l-9.995-9.985c-1.375-1.387-1.48-3.945-1.583-6.418l-0.011-0.25L71.623 44.953z" data-fill-palette-color="accent"></path><path fill="#ffffff" d="M65.893 32.848c-0.609-0.609-0.609-1.598 0.006-2.213 0.609-0.609 1.599-0.609 2.208 0 0.608 0.609 0.608 1.598 0 2.208C67.49 33.458 66.502 33.458 65.893 32.848z" data-fill-palette-color="accent"></path></svg></g></svg></g><g></g></svg></g><defs></defs></svg><rect width="395.52" height="191.11820631469834" fill="none" stroke="none" visibility="hidden"></rect></g></svg></g></svg>